<?xml version="1.0" encoding="UTF-8"?><svg id="a" xmlns="http://www.w3.org/2000/svg" viewBox="0 0 62.12 61.89"><defs><style>.b{fill:#849;}</style></defs><path d="m.26,3.47c.66,6.78.93,13.58.78,20.39-.07,3.36-.25,6.73-.52,10.08-.22,2.76-1.32,6.45.55,8.85,1.62,2.08,4.51,2.33,6.95,2.27,3.33-.09,6.63-.26,9.96-.22,6.76.08,13.51.55,20.27.76,3.28.1,6.57.16,9.85.06,3.04-.09,6.29-.39,8.89-2.12,2.18-1.45,3.73-3.59,4.53-6.07.93-2.9.55-5.97.21-8.94-.76-6.51.1-13.04-.43-19.56-.22-2.69-.31-6.42-2.82-8.1C57.29.07,55.86,0,54.46,0c-1.66,0-3.31.05-4.97.12C34.03.74,18.58.92,3.12.44.36.36.36,4.64,3.12,4.73c12.55.39,25.11.39,37.65,0,3.07-.09,6.14-.23,9.22-.35,1.49-.06,2.98-.1,4.47-.1,1.01,0,1.69-.18,2.01.86.83,2.67.73,5.82.73,8.59,0,3.03-.15,6.07-.11,9.1s.47,5.78.69,8.69c.17,2.29.07,4.6-1.24,6.56s-3.47,2.82-5.75,3.1c-2.98.38-6.07.24-9.07.19-6.19-.1-12.36-.5-18.54-.72-3.13-.11-6.26-.17-9.39-.12-2.57.04-5.37.55-7.92.15-.89-.14-1.54-.3-1.55-1.26-.02-1.49.28-3.04.41-4.52.3-3.44.49-6.88.58-10.33.18-7.05-.08-14.11-.77-21.13-.11-1.15-.9-2.14-2.14-2.14C1.33,1.32.15,2.31.26,3.47H.26Z"/><path d="m25.62,44.58c.81,2.38,1.15,5.07.84,7.57-.24,1.94-1.31,3.64-3.26,4.19-2.47.7-5.33.54-7.87.6-2.94.07-5.88.03-8.82-.1-2.76-.12-2.75,4.16,0,4.28,3.38.15,6.76.18,10.15.07,3.11-.1,6.69.05,9.51-1.45,5.66-3.01,5.37-11.05,3.59-16.3-.88-2.6-5.02-1.48-4.13,1.14h0Z"/><path d="m28.44,44.08c-1.79,5.24-2.08,13.29,3.59,16.3,2.77,1.47,6.24,1.33,9.29,1.44,3.46.12,6.91.1,10.37-.06,2.75-.12,2.76-4.41,0-4.28-2.94.13-5.88.17-8.82.1-2.55-.06-5.4.1-7.87-.6-1.96-.55-3.02-2.24-3.26-4.19-.32-2.5.03-5.2.84-7.57.89-2.62-3.25-3.74-4.13-1.14h0Z"/><path class="b" d="m41.56,6.67c-1.94.76-3.42,2.07-4.64,3.74s-2.34,3.68-3,5.65c-.83,2.46.64,4.63,1.81,6.71s2.41,3.73,4.75,4.53c2.1.71,4.82,1.3,6.99.62s3.47-2.41,4.52-4.22c2.31-3.97,3.36-8.92,1.14-13.16-1.11-2.12-2.98-3.69-5.26-4.41s-5.16-.79-7.18.72c-1.09.81-.03,2.67,1.08,1.85,2.8-2.08,7.28-.55,9.07,2.17,2.03,3.09,1.63,6.97.13,10.19-.7,1.5-1.59,3.2-2.95,4.21-1.57,1.18-3.62.77-5.39.38-1.89-.42-3.29-1.05-4.33-2.73-.52-.83-.99-1.7-1.45-2.57s-1.16-1.87-1.06-2.91c.09-.95.64-1.86,1.06-2.71s.84-1.61,1.32-2.37c.97-1.53,2.23-2.95,3.95-3.63,1.27-.5.72-2.57-.57-2.07h0Z"/><path class="b" d="m35.95,23.26c-4.24,2.05-8.48,4.12-12.5,6.59s-7.54,4.98-11.77,6.57c-1.28.48-.72,2.55.57,2.07,4.28-1.62,8.05-4.16,11.91-6.56,4.13-2.57,8.49-4.71,12.86-6.82,1.24-.6.16-2.45-1.08-1.85h0Z"/></svg>