<?xml version="1.0" encoding="UTF-8"?><svg id="a" xmlns="http://www.w3.org/2000/svg" viewBox="0 0 62.12 61.89"><defs><style>.b{fill:#33c;}</style></defs><path d="m.26,3.47c.66,6.78.93,13.58.78,20.39-.07,3.36-.25,6.73-.52,10.08-.22,2.76-1.32,6.45.55,8.85,1.62,2.08,4.51,2.33,6.95,2.27,3.33-.09,6.63-.26,9.96-.22,6.76.08,13.51.55,20.27.76,3.28.1,6.57.16,9.85.06,3.04-.09,6.29-.39,8.89-2.12,2.18-1.45,3.73-3.59,4.53-6.07.93-2.9.55-5.97.21-8.94-.76-6.51.1-13.04-.43-19.56-.22-2.69-.31-6.42-2.82-8.1C57.29.07,55.86,0,54.46,0c-1.66,0-3.31.05-4.97.12C34.03.74,18.58.92,3.12.44.36.36.36,4.64,3.12,4.73c12.55.39,25.11.39,37.65,0,3.07-.09,6.14-.23,9.22-.35,1.49-.06,2.98-.1,4.47-.1,1.01,0,1.69-.18,2.01.86.83,2.67.73,5.82.73,8.59,0,3.03-.15,6.07-.11,9.1s.47,5.78.69,8.69c.17,2.29.07,4.6-1.24,6.56s-3.47,2.82-5.75,3.1c-2.98.38-6.07.24-9.07.19-6.19-.1-12.36-.5-18.54-.72-3.13-.11-6.26-.17-9.39-.12-2.57.04-5.37.55-7.92.15-.89-.14-1.54-.3-1.55-1.26-.02-1.49.28-3.04.41-4.52.3-3.44.49-6.88.58-10.33.18-7.05-.08-14.11-.77-21.13-.11-1.15-.9-2.14-2.14-2.14C1.33,1.32.15,2.31.26,3.47H.26Z"/><path d="m25.62,44.58c.81,2.38,1.15,5.07.84,7.57-.24,1.94-1.31,3.64-3.26,4.19-2.47.7-5.33.54-7.87.6-2.94.07-5.88.03-8.82-.1-2.76-.12-2.75,4.16,0,4.28,3.38.15,6.76.18,10.15.07,3.11-.1,6.69.05,9.51-1.45,5.66-3.01,5.37-11.05,3.59-16.3-.88-2.6-5.02-1.48-4.13,1.14h0Z"/><path d="m28.44,44.08c-1.79,5.24-2.08,13.29,3.59,16.3,2.77,1.47,6.24,1.33,9.29,1.44,3.46.12,6.91.1,10.37-.06,2.75-.12,2.76-4.41,0-4.28-2.94.13-5.88.17-8.82.1-2.55-.06-5.4.1-7.87-.6-1.96-.55-3.02-2.24-3.26-4.19-.32-2.5.03-5.2.84-7.57.89-2.62-3.25-3.74-4.13-1.14h0Z"/><path class="b" d="m29.17,11.53c-5.09-1.17-9.37,4.56-10.64,8.85-1.48,5.04.96,9.9,5.42,12.4,2.18,1.22,4.66,1.9,7.15,1.99,2.86.1,5.25-.94,7.69-2.33,2.19-1.25,3.81-2.98,4.26-5.52.42-2.4.29-5.28-.61-7.56-2.21-5.65-8.85-7.85-14.43-7.83-1.38,0-1.38,2.15,0,2.14,4.18-.02,9,1.22,11.55,4.81,1.22,1.73,1.49,3.79,1.54,5.86.04,1.91-.27,3.83-1.77,5.16-.77.68-1.72,1.16-2.62,1.64-1.06.56-2.11,1.1-3.3,1.34-2.06.41-4.29.07-6.26-.6-3.77-1.28-6.99-4.36-6.92-8.57.04-2.3,1.05-4.46,2.42-6.27s3.42-4.03,5.96-3.45c1.34.31,1.91-1.76.57-2.07h0Z"/><path class="b" d="m24.54,22.84c1.37,2.85,2.47,5.81,3.28,8.87.27,1.02,1.79,1.01,2.07,0,1.53-5.58,3.78-10.91,6.65-15.93.68-1.2-1.17-2.28-1.85-1.08-2.95,5.17-5.29,10.69-6.86,16.44h2.07c-.86-3.23-2.04-6.36-3.5-9.38-.6-1.24-2.45-.16-1.85,1.08h0Z"/></svg>