<?xml version="1.0" encoding="UTF-8"?><svg id="a" xmlns="http://www.w3.org/2000/svg" viewBox="0 0 62.12 61.89"><defs><style>.b{fill:#00df20;}</style></defs><path d="m.26,3.47c.66,6.78.93,13.58.78,20.39-.07,3.36-.25,6.73-.52,10.08-.22,2.76-1.32,6.45.55,8.85,1.62,2.08,4.51,2.33,6.95,2.27,3.33-.09,6.63-.26,9.96-.22,6.76.08,13.51.55,20.27.76,3.28.1,6.57.16,9.85.06,3.04-.09,6.29-.39,8.89-2.12,2.18-1.45,3.73-3.59,4.53-6.07.93-2.9.55-5.97.21-8.94-.76-6.51.1-13.04-.43-19.56-.22-2.69-.31-6.42-2.82-8.1C57.29.07,55.86,0,54.46,0c-1.66,0-3.31.05-4.97.12C34.03.74,18.58.92,3.12.44.36.36.36,4.64,3.12,4.73c12.55.39,25.11.39,37.65,0,3.07-.09,6.14-.23,9.22-.35,1.49-.06,2.98-.1,4.47-.1,1.01,0,1.69-.18,2.01.86.83,2.67.73,5.82.73,8.59,0,3.03-.15,6.07-.11,9.1s.47,5.78.69,8.69c.17,2.29.07,4.6-1.24,6.56s-3.47,2.82-5.75,3.1c-2.98.38-6.07.24-9.07.19-6.19-.1-12.36-.5-18.54-.72-3.13-.11-6.26-.17-9.39-.12-2.57.04-5.37.55-7.92.15-.89-.14-1.54-.3-1.55-1.26-.02-1.49.28-3.04.41-4.52.3-3.44.49-6.88.58-10.33.18-7.05-.08-14.11-.77-21.13-.11-1.15-.9-2.14-2.14-2.14C1.33,1.32.15,2.31.26,3.47H.26Z"/><path d="m25.62,44.58c.81,2.38,1.15,5.07.84,7.57-.24,1.94-1.31,3.64-3.26,4.19-2.47.7-5.33.54-7.87.6-2.94.07-5.88.03-8.82-.1-2.76-.12-2.75,4.16,0,4.28,3.38.15,6.76.18,10.15.07,3.11-.1,6.69.05,9.51-1.45,5.66-3.01,5.37-11.05,3.59-16.3-.88-2.6-5.02-1.48-4.13,1.14h0Z"/><path d="m28.44,44.08c-1.79,5.24-2.08,13.29,3.59,16.3,2.77,1.47,6.24,1.33,9.29,1.44,3.46.12,6.91.1,10.37-.06,2.75-.12,2.76-4.41,0-4.28-2.94.13-5.88.17-8.82.1-2.55-.06-5.4.1-7.87-.6-1.96-.55-3.02-2.24-3.26-4.19-.32-2.5.03-5.2.84-7.57.89-2.62-3.25-3.74-4.13-1.14h0Z"/><path class="b" d="m18.65,9.4c-1,7.53-1.83,15.09-2.48,22.67-.12,1.38-.22,2.62,1,3.55,1.13.86,2.69,1.08,4.06,1.27,3.54.49,7.15.61,10.71.58,1.76-.01,3.53-.07,5.28-.2,1.42-.11,2.86-.29,3.98-1.26,2.16-1.87,2.86-5.51,3.31-8.17.59-3.57.8-7.21,1.04-10.81.17-2.64.73-6.1-1.99-7.68-1.22-.71-2.66-.82-4.03-.95-2.1-.2-4.2-.35-6.3-.45-4.21-.21-8.42-.23-12.63-.08-1.37.05-1.38,2.19,0,2.14,6.23-.22,12.47-.07,18.69.51,1.11.1,2.63.11,3.52.91.98.88.8,2.44.74,3.62-.18,3.13-.4,6.27-.72,9.39-.3,2.87-.72,5.9-2.01,8.52-.62,1.26-1.4,1.92-2.81,2.12-1.51.21-3.08.21-4.61.24-3.12.08-6.25-.01-9.36-.27-1.39-.11-2.8-.22-4.16-.57-.6-.15-1.44-.3-1.65-1-.2-.65.15-1.97.21-2.64.63-7.16,1.42-14.31,2.37-21.43.18-1.36-1.96-1.35-2.14,0h0Z"/><path class="b" d="m27.75,15.76c.9-.21,1.81-.28,2.77-.18.02,0,.28.03.25.03.37.01-.32-.1-.23-.43.03-.09.01.18.01.22,0,.13,0,.26-.02.38-.04.31-.3.86-.3,1.29,0,.58.36,1.08.86,1.36.37.21.77.26,1.17.34.18.04.35.09.52.14.29.08-.12-.08.14.06.08.04.16.08.24.13.28.16.48.35.64.6.3.49.96.68,1.47.38s.69-.97.38-1.47c-.56-.9-1.44-1.51-2.45-1.81-.22-.07-.44-.1-.66-.14-.09-.02-.18-.03-.27-.06l-.09-.02c-.12-.04-.12-.04,0,0l-.07-.04c.13.07.21.18.25.33v.27c.04-.07.06-.14.09-.21.08-.24.14-.49.18-.74.09-.61.15-1.36-.17-1.91-.39-.67-1.11-.76-1.8-.84-1.16-.13-2.34-.02-3.48.25-.56.13-.9.77-.75,1.32.16.58.75.88,1.32.75h0Z"/><path class="b" d="m27.16,25.01c1.34-.05,2.62.34,3.83.9,1.33.62,2.6,1.37,3.84,2.13,1.18.72,2.25-1.13,1.08-1.85-2.61-1.61-5.57-3.44-8.76-3.33-.58.02-1.07.48-1.07,1.07s.49,1.09,1.07,1.07h0Z"/><path class="b" d="m27.08,31.55l4.93,1.21c.54.13,1.19-.17,1.32-.75s-.17-1.17-.75-1.32l-4.93-1.21c-.54-.13-1.19.17-1.32.75s.17,1.17.75,1.32h0Z"/></svg>